<?xml version="1.0" encoding="UTF-8" standalone="no"?>
<!DOCTYPE svg PUBLIC "-//W3C//DTD SVG 1.1//EN" "http://www.w3.org/Graphics/SVG/1.1/DTD/svg11.dtd">
<svg xmlns="http://www.w3.org/2000/svg" version="1.1" viewBox="0.00 0.00 233.00 233.00">
<g stroke-width="0.00" fill="none" stroke-linecap="butt">
<path stroke="#81aac6" vector-effect="non-scaling-stroke" d="
  M 55.57 80.03
  C 75.92 31.96 142.78 29.13 166.51 75.86
  Q 170.90 84.51 172.14 94.03
  Q 175.52 119.90 158.78 140.69
  Q 158.32 141.25 159.05 141.25
  L 171.57 141.25
  Q 172.27 141.25 172.64 140.65
  C 192.80 107.85 184.47 64.96 152.73 42.85
  C 121.26 20.93 77.62 27.70 54.65 58.68
  C 36.61 83.02 35.37 114.72 51.18 140.78
  Q 51.47 141.25 52.02 141.25
  L 64.98 141.25
  Q 65.71 141.25 65.27 140.66
  C 64.14 139.18 62.85 137.75 61.82 136.19
  Q 46.41 113.04 53.51 86.03
  Q 54.30 83.05 55.57 80.03"
/>
<path stroke="#81aac6" vector-effect="non-scaling-stroke" d="
  M 101.01 128.54
  Q 96.03 128.97 90.70 130.09
  Q 87.84 130.69 85.74 129.88
  C 82.29 128.56 80.52 124.15 82.16 120.76
  Q 87.56 109.62 93.15 98.27
  A 5.07 5.00 54.1 0 0 93.61 95.25
  L 90.89 77.81
  Q 90.79 77.16 91.44 77.06
  L 102.47 75.40
  A 0.56 0.56 0.0 0 1 103.11 75.86
  L 104.88 86.92
  Q 105.04 87.96 106.09 88.02
  Q 106.27 88.03 106.44 87.97
  Q 107.07 87.76 106.98 87.10
  Q 106.26 81.57 105.31 75.70
  Q 105.19 74.92 105.94 74.82
  Q 106.60 74.73 107.25 74.53
  A 1.56 1.55 -12.6 0 0 108.34 72.82
  L 107.74 68.73
  A 1.65 1.64 81.5 0 0 105.87 67.34
  L 93.07 69.25
  Q 92.26 69.37 92.32 70.19
  L 92.35 70.59
  Q 92.42 71.41 93.22 71.27
  L 105.04 69.25
  Q 105.68 69.15 105.79 69.79
  L 106.15 72.03
  Q 106.23 72.55 105.71 72.63
  L 87.51 75.68
  Q 86.99 75.77 86.92 75.25
  L 86.57 72.77
  Q 86.50 72.28 86.99 72.21
  L 90.22 71.73
  A 0.69 0.69 0.0 0 0 90.81 70.98
  L 90.78 70.63
  Q 90.69 69.63 89.71 69.81
  L 85.51 70.56
  A 1.21 1.21 0.0 0 0 84.53 71.55
  C 84.21 73.54 84.38 78.97 87.99 77.70
  A 0.58 0.58 0.0 0 1 88.76 78.16
  Q 90.15 86.53 91.45 94.49
  Q 91.78 96.54 90.55 99.03
  Q 85.57 109.08 80.64 118.95
  Q 78.21 123.82 80.71 128.16
  C 82.99 132.13 86.90 132.98 91.17 132.19
  Q 98.33 130.85 105.05 129.82
  Q 106.62 129.58 108.10 130.00
  Q 119.64 133.33 132.40 137.03
  C 139.68 139.15 146.27 132.84 143.72 125.55
  Q 140.02 114.93 135.80 102.59
  C 135.39 101.38 135.63 100.12 136.13 98.98
  Q 136.99 97.03 135.31 96.91
  A 0.83 0.82 16.0 0 0 134.54 97.33
  C 133.68 98.88 133.11 101.08 133.70 102.83
  Q 137.53 114.02 141.71 126.09
  C 143.44 131.09 139.28 136.83 133.77 135.21
  Q 117.59 130.45 103.37 126.52
  C 97.75 124.97 96.36 118.09 100.80 114.55
  Q 110.93 106.46 120.47 98.69
  Q 121.32 98.00 121.62 96.96
  L 126.66 79.54
  A 0.55 0.55 0.0 0 1 127.34 79.16
  L 138.39 82.29
  A 0.31 0.31 0.0 0 1 138.60 82.67
  L 135.33 94.17
  A 0.80 0.79 -74.0 0 0 135.87 95.16
  L 136.41 95.32
  Q 137.08 95.52 137.28 94.84
  L 140.53 83.72
  Q 140.74 83.03 141.42 83.26
  Q 142.28 83.55 143.18 83.57
  Q 143.77 83.58 144.04 83.06
  Q 145.39 80.52 145.65 78.03
  A 1.61 1.60 10.9 0 0 144.49 76.32
  L 132.07 72.71
  Q 131.47 72.54 131.23 73.12
  L 131.12 73.40
  Q 130.72 74.39 131.75 74.67
  L 143.25 77.89
  A 0.48 0.48 0.0 0 1 143.58 78.50
  L 142.83 80.88
  A 0.54 0.54 0.0 0 1 142.16 81.23
  L 124.69 76.15
  Q 124.05 75.96 124.24 75.32
  L 124.81 73.40
  A 0.73 0.73 0.0 0 1 125.70 72.91
  L 128.72 73.77
  A 0.53 0.53 0.0 0 0 129.38 73.40
  L 129.59 72.65
  Q 129.75 72.05 129.15 71.89
  L 124.65 70.64
  A 0.89 0.89 0.0 0 0 123.67 71.02
  Q 122.47 72.90 121.95 75.37
  Q 121.41 77.99 124.13 78.17
  Q 124.90 78.22 124.67 78.96
  Q 122.38 86.44 120.08 94.99
  C 119.41 97.51 117.13 98.73 115.26 100.25
  Q 114.76 100.65 114.31 100.20
  Q 111.57 97.42 108.86 94.59
  C 107.78 93.47 107.77 91.75 107.53 90.30
  Q 107.45 89.80 106.95 89.71
  Q 106.46 89.61 106.04 89.87
  Q 105.63 90.12 105.62 90.61
  Q 105.57 94.19 107.33 96.06
  Q 109.79 98.67 112.53 101.35
  Q 112.97 101.78 112.63 102.28
  C 111.90 103.37 110.60 103.99 109.30 103.47
  Q 105.84 102.08 103.04 104.57
  A 3.08 3.06 36.4 0 1 99.73 105.06
  C 95.33 103.05 90.78 107.58 89.16 111.26
  Q 87.00 116.14 84.34 121.09
  C 82.35 124.78 85.15 128.66 89.18 128.23
  Q 91.27 128.01 93.12 127.51
  Q 94.19 127.22 93.85 126.16
  A 0.90 0.89 -9.8 0 0 92.94 125.53
  Q 91.23 125.65 89.56 126.02
  C 87.29 126.53 84.80 124.98 86.11 122.39
  Q 88.47 117.70 91.11 112.04
  C 92.89 108.23 96.07 105.46 100.48 107.34
  Q 100.93 107.54 101.41 107.43
  Q 103.37 107.01 105.02 105.77
  A 3.13 3.10 -64.0 0 1 106.79 105.15
  L 107.87 105.12
  Q 109.15 105.08 108.17 105.90
  L 104.09 109.31
  Q 103.71 109.63 103.28 109.38
  Q 103.05 109.24 102.93 108.99
  A 0.85 0.85 0.0 0 0 102.17 108.49
  Q 101.72 108.48 101.44 108.81
  Q 101.09 109.21 101.20 109.72
  L 101.42 110.72
  Q 101.59 111.51 100.90 111.92
  C 96.46 114.53 94.92 119.46 97.14 124.19
  Q 97.43 124.81 96.76 124.97
  L 96.13 125.11
  A 0.84 0.84 0.0 0 0 95.54 126.24
  L 95.65 126.51
  A 0.82 0.81 -20.6 0 0 96.68 126.97
  Q 98.98 126.19 101.18 128.00
  Q 101.75 128.47 101.01 128.54"
/>
<path stroke="#81aac6" vector-effect="non-scaling-stroke" d="
  M 103.42 121.80
  A 2.32 2.32 0.0 0 1 103.25 118.12
  Q 108.51 113.68 113.51 109.87
  Q 118.24 106.27 122.20 109.91
  C 123.75 111.33 125.99 111.18 127.90 110.73
  A 1.66 1.63 -38.4 0 1 129.01 110.85
  Q 132.41 112.53 133.40 115.22
  Q 135.65 121.34 137.70 127.77
  C 138.35 129.79 136.67 131.70 134.63 131.13
  Q 125.19 128.49 111.63 124.56
  A 0.96 0.96 0.0 0 0 110.50 125.03
  Q 110.38 125.25 110.37 125.49
  Q 110.33 126.34 111.14 126.58
  Q 122.58 129.87 133.48 133.02
  C 137.60 134.21 141.22 130.85 139.63 126.65
  Q 137.54 121.11 135.61 115.04
  C 134.80 112.49 131.15 108.22 127.72 108.70
  Q 126.63 108.86 125.59 109.08
  Q 124.95 109.22 124.38 108.90
  Q 123.43 108.37 122.68 107.59
  C 120.14 104.95 114.59 106.12 112.06 108.24
  Q 107.91 111.69 103.86 114.86
  C 102.29 116.09 100.25 117.52 100.36 119.78
  C 100.56 124.00 104.18 124.90 107.62 125.52
  A 1.02 1.02 0.0 0 0 108.80 124.70
  L 108.86 124.38
  Q 109.00 123.62 108.24 123.49
  Q 105.06 122.95 103.42 121.80"
/>
<path stroke="#81aac6" vector-effect="non-scaling-stroke" d="
  M 95.0405 113.5919
  A 1.35 1.16 80.6 0 0 95.9644 112.0705
  A 1.35 1.16 80.6 0 0 94.5995 110.9281
  A 1.35 1.16 80.6 0 0 93.6756 112.4495
  A 1.35 1.16 80.6 0 0 95.0405 113.5919"
/>
<path stroke="#81aac6" vector-effect="non-scaling-stroke" d="
  M 115.2488 113.7312
  A 1.36 1.15 105.4 0 0 116.7187 112.7254
  A 1.36 1.15 105.4 0 0 115.9712 111.1088
  A 1.36 1.15 105.4 0 0 114.5013 112.1146
  A 1.36 1.15 105.4 0 0 115.2488 113.7312"
/>
<path stroke="#81aac6" vector-effect="non-scaling-stroke" d="
  M 122.9945 114.6573
  A 1.34 1.15 104.5 0 0 124.4434 113.6479
  A 1.34 1.15 104.5 0 0 123.6655 112.0627
  A 1.34 1.15 104.5 0 0 122.2166 113.0721
  A 1.34 1.15 104.5 0 0 122.9945 114.6573"
/>
<path stroke="#81aac6" vector-effect="non-scaling-stroke" d="
  M 130.2908 118.7496
  A 1.35 1.11 107.2 0 0 131.7504 117.7882
  A 1.35 1.11 107.2 0 0 131.0892 116.1704
  A 1.35 1.11 107.2 0 0 129.6296 117.1318
  A 1.35 1.11 107.2 0 0 130.2908 118.7496"
/>
<path stroke="#81aac6" vector-effect="non-scaling-stroke" d="
  M 110.3940 119.5115
  A 1.37 1.09 106.8 0 0 111.8335 118.5150
  A 1.37 1.09 106.8 0 0 111.1860 116.8885
  A 1.37 1.09 106.8 0 0 109.7465 117.8850
  A 1.37 1.09 106.8 0 0 110.3940 119.5115"
/>
<path stroke="#81aac6" vector-effect="non-scaling-stroke" d="
  M 119.1261 120.6296
  A 1.40 1.13 103.8 0 0 120.5574 119.5395
  A 1.40 1.13 103.8 0 0 119.7939 117.9104
  A 1.40 1.13 103.8 0 0 118.3626 119.0005
  A 1.40 1.13 103.8 0 0 119.1261 120.6296"
/>
<path stroke="#81aac6" vector-effect="non-scaling-stroke" d="
  M 93.0545 120.9504
  A 1.41 1.17 83.3 0 0 94.0520 119.4135
  A 1.41 1.17 83.3 0 0 92.7255 118.1496
  A 1.41 1.17 83.3 0 0 91.7280 119.6865
  A 1.41 1.17 83.3 0 0 93.0545 120.9504"
/>
<path stroke="#81aac6" vector-effect="non-scaling-stroke" d="
  M 128.3112 126.1432
  A 1.36 1.07 101.4 0 0 129.6289 125.0215
  A 1.36 1.07 101.4 0 0 128.8488 123.4768
  A 1.36 1.07 101.4 0 0 127.5311 124.5985
  A 1.36 1.07 101.4 0 0 128.3112 126.1432"
/>
<path stroke="#81aac6" vector-effect="non-scaling-stroke" d="
  M 70.18 144.68
  Q 64.63 142.20 60.87 145.72
  C 53.93 152.25 63.60 163.04 70.81 156.92
  Q 71.57 156.28 70.98 155.47
  L 70.32 154.56
  A 1.18 1.17 -34.8 0 0 68.72 154.28
  C 65.80 156.19 61.86 154.64 62.05 150.91
  C 62.22 147.67 65.89 146.13 68.42 147.83
  Q 69.79 148.76 70.66 147.35
  L 70.89 146.99
  Q 71.86 145.43 70.18 144.68"
/>
<path stroke="#81aac6" vector-effect="non-scaling-stroke" d="
  M 81.23 152.44
  A 0.79 0.79 0.0 0 1 82.02 153.22
  L 82.08 157.56
  A 0.79 0.79 0.0 0 0 82.84 158.33
  L 84.69 158.39
  A 0.79 0.79 0.0 0 0 85.50 157.60
  L 85.51 144.61
  A 0.79 0.79 0.0 0 0 84.70 143.82
  L 82.83 143.87
  A 0.79 0.79 0.0 0 0 82.06 144.65
  L 82.02 148.82
  A 0.79 0.79 0.0 0 1 81.23 149.61
  L 77.35 149.63
  A 0.79 0.79 0.0 0 1 76.56 148.84
  L 76.59 144.62
  A 0.79 0.79 0.0 0 0 75.77 143.82
  L 73.89 143.90
  A 0.79 0.79 0.0 0 0 73.13 144.69
  L 73.15 157.57
  A 0.79 0.79 0.0 0 0 73.92 158.36
  L 75.74 158.39
  A 0.79 0.79 0.0 0 0 76.55 157.61
  L 76.61 153.24
  A 0.79 0.79 0.0 0 1 77.40 152.46
  L 81.23 152.44"
/>
<path stroke="#81aac6" vector-effect="non-scaling-stroke" d="
  M 91.21 147.79
  Q 91.19 147.27 91.71 147.27
  L 97.60 147.28
  Q 99.10 147.28 99.15 145.78
  L 99.18 144.98
  Q 99.22 143.75 97.98 143.75
  L 88.68 143.76
  A 1.06 1.05 90.0 0 0 87.63 144.82
  L 87.64 157.52
  A 0.97 0.96 0.3 0 0 88.60 158.48
  L 97.50 158.51
  Q 99.16 158.52 99.18 156.86
  Q 99.19 156.71 99.20 156.56
  A 1.46 1.46 0.0 0 0 97.74 154.95
  L 91.75 154.99
  Q 91.25 155.00 91.26 154.50
  L 91.26 153.25
  A 0.49 0.49 0.0 0 1 91.75 152.76
  L 95.49 152.76
  Q 97.00 152.76 96.97 151.26
  L 96.97 150.73
  Q 96.94 149.27 95.48 149.26
  L 91.75 149.23
  A 0.50 0.50 0.0 0 1 91.25 148.75
  L 91.21 147.79"
/>
<path stroke="#81aac6" vector-effect="non-scaling-stroke" d="
  M 105.15 150.71
  L 107.55 154.06
  A 1.65 1.65 0.0 0 0 110.22 154.07
  L 112.80 150.55
  Q 113.36 149.79 113.36 150.74
  L 113.35 157.18
  Q 113.34 158.51 114.68 158.48
  L 115.59 158.46
  Q 116.86 158.43 116.86 157.16
  L 116.89 144.80
  Q 116.89 144.19 116.33 143.97
  C 115.08 143.47 113.75 143.74 112.93 144.88
  Q 110.99 147.57 109.20 149.85
  A 0.39 0.39 0.0 0 1 108.59 149.84
  Q 106.65 147.33 104.85 144.87
  Q 103.52 143.06 101.42 144.09
  Q 100.97 144.31 100.97 144.80
  L 100.95 156.98
  A 1.49 1.48 89.1 0 0 102.48 158.47
  L 103.04 158.45
  Q 104.48 158.40 104.49 156.96
  L 104.52 150.91
  Q 104.52 149.84 105.15 150.71"
/>
<path stroke="#81aac6" vector-effect="non-scaling-stroke" d="
  M 122.64 145.05
  A 1.27 1.27 0.0 0 0 121.37 143.78
  L 120.33 143.78
  A 1.27 1.27 0.0 0 0 119.06 145.05
  L 119.06 157.19
  A 1.27 1.27 0.0 0 0 120.33 158.46
  L 121.37 158.46
  A 1.27 1.27 0.0 0 0 122.64 157.19
  L 122.64 145.05"
/>
<path stroke="#81aac6" vector-effect="non-scaling-stroke" d="
  M 131.37 155.11
  C 124.76 153.81 128.74 143.97 134.56 148.05
  Q 135.03 148.38 135.55 148.13
  Q 136.60 147.62 136.94 146.32
  Q 137.10 145.70 136.64 145.25
  Q 135.51 144.15 133.78 143.84
  C 129.41 143.05 124.99 145.32 124.51 149.96
  C 123.79 156.81 130.43 160.71 136.21 157.40
  A 1.41 1.40 -27.8 0 0 136.78 155.58
  L 136.39 154.78
  Q 135.84 153.63 134.71 154.20
  C 133.64 154.73 132.62 155.35 131.37 155.11"
/>
<path stroke="#81aac6" vector-effect="non-scaling-stroke" d="
  M 148.29 155.68
  L 149.45 157.95
  A 1.32 1.32 0.0 0 0 151.20 158.53
  L 151.97 158.15
  Q 153.17 157.56 152.59 156.35
  L 146.97 144.76
  A 1.79 1.79 0.0 0 0 143.74 144.76
  L 138.19 156.30
  Q 137.56 157.60 138.88 158.19
  L 139.44 158.45
  Q 140.78 159.05 141.38 157.72
  L 142.27 155.75
  Q 142.48 155.28 143.00 155.29
  L 147.65 155.29
  A 0.72 0.72 0.0 0 1 148.29 155.68"
/>
<path stroke="#81aac6" vector-effect="non-scaling-stroke" d="
  M 158.65 155.50
  A 0.66 0.66 0.0 0 1 157.99 154.84
  L 157.98 144.52
  A 0.66 0.66 0.0 0 0 157.31 143.86
  L 155.16 143.87
  A 0.66 0.66 0.0 0 0 154.50 144.54
  L 154.53 157.79
  A 0.66 0.66 0.0 0 0 155.19 158.45
  L 164.17 158.48
  A 0.66 0.66 0.0 0 0 164.83 157.83
  L 164.87 156.18
  A 0.66 0.66 0.0 0 0 164.21 155.51
  L 158.65 155.50"
/>
<path stroke="#81aac6" vector-effect="non-scaling-stroke" d="
  M 159.25 166.47
  Q 158.96 165.48 160.03 164.94
  A 1.40 1.39 46.9 0 1 161.35 164.99
  L 162.98 165.97
  A 0.89 0.89 0.0 0 0 164.16 165.72
  L 165.11 164.41
  Q 165.54 163.82 164.99 163.34
  C 161.56 160.35 154.98 161.24 155.65 166.91
  C 156.00 169.91 159.48 170.45 161.76 171.09
  A 1.11 1.11 0.0 0 1 162.17 173.01
  C 160.38 174.51 159.21 172.70 157.95 171.78
  A 1.16 1.14 -34.2 0 0 156.98 171.60
  Q 155.90 171.89 155.46 172.98
  Q 155.28 173.42 155.49 173.85
  C 157.44 177.95 164.45 177.77 165.89 173.35
  C 167.35 168.87 163.23 167.79 160.04 167.19
  A 1.03 1.01 -2.3 0 1 159.25 166.47"
/>
<path stroke="#81aac6" vector-effect="non-scaling-stroke" d="
  M 68.66 168.16
  C 70.07 164.18 67.56 161.69 63.77 161.82
  Q 61.27 161.91 58.99 161.90
  A 1.13 1.13 0.0 0 0 57.85 163.03
  L 57.80 175.43
  A 1.01 1.01 0.0 0 0 58.72 176.44
  Q 61.47 176.66 64.35 176.65
  C 68.50 176.64 70.80 172.93 68.76 169.29
  Q 68.45 168.75 68.66 168.16"
/>
<path stroke="#81aac6" vector-effect="non-scaling-stroke" d="
  M 75.46 172.53
  L 77.68 172.51
  Q 78.17 172.51 78.37 172.95
  L 79.64 175.79
  Q 80.20 177.02 81.47 176.55
  L 82.04 176.34
  Q 83.45 175.81 82.85 174.43
  L 81.63 171.67
  Q 81.42 171.18 81.69 170.71
  Q 84.56 165.79 80.61 162.92
  C 78.57 161.44 74.87 161.73 72.43 161.96
  A 1.03 1.02 -2.4 0 0 71.49 162.98
  L 71.49 175.25
  Q 71.49 176.51 72.75 176.54
  L 73.46 176.55
  Q 75.01 176.59 74.99 175.04
  L 74.96 173.04
  Q 74.95 172.54 75.46 172.53"
/>
<path stroke="#81aac6" vector-effect="non-scaling-stroke" d="
  M 91.4174 176.8494
  A 7.58 7.31 90.7 0 0 98.8195 169.3593
  A 7.58 7.31 90.7 0 0 91.6026 161.6906
  A 7.58 7.31 90.7 0 0 84.2005 169.1807
  A 7.58 7.31 90.7 0 0 91.4174 176.8494"
/>
<path stroke="#81aac6" vector-effect="non-scaling-stroke" d="
  M 103.47 164.74
  A 0.63 0.63 0.0 0 1 104.10 165.38
  L 104.06 175.80
  A 0.63 0.63 0.0 0 0 104.67 176.43
  L 106.83 176.52
  A 0.63 0.63 0.0 0 0 107.48 175.89
  L 107.53 165.37
  A 0.63 0.63 0.0 0 1 108.15 164.74
  L 112.10 164.71
  A 0.63 0.63 0.0 0 0 112.73 164.09
  L 112.77 162.50
  A 0.63 0.63 0.0 0 0 112.14 161.85
  L 99.45 161.86
  A 0.63 0.63 0.0 0 0 98.82 162.49
  L 98.80 164.06
  A 0.63 0.63 0.0 0 0 99.43 164.70
  L 103.47 164.74"
/>
<path stroke="#81aac6" vector-effect="non-scaling-stroke" d="
  M 122.63 170.67
  A 0.79 0.79 0.0 0 1 123.43 171.45
  L 123.46 175.68
  A 0.79 0.79 0.0 0 0 124.25 176.46
  L 126.10 176.48
  A 0.79 0.79 0.0 0 0 126.89 175.69
  L 126.89 162.74
  A 0.79 0.79 0.0 0 0 126.09 161.95
  L 124.27 161.99
  A 0.79 0.79 0.0 0 0 123.50 162.76
  L 123.41 166.98
  A 0.79 0.79 0.0 0 1 122.63 167.75
  L 118.76 167.76
  A 0.79 0.79 0.0 0 1 117.97 166.98
  L 117.91 162.71
  A 0.79 0.79 0.0 0 0 117.09 161.93
  L 115.28 162.00
  A 0.79 0.79 0.0 0 0 114.52 162.79
  L 114.49 175.68
  A 0.79 0.79 0.0 0 0 115.27 176.47
  L 117.14 176.50
  A 0.79 0.79 0.0 0 0 117.94 175.71
  L 117.95 171.49
  A 0.79 0.79 0.0 0 1 118.73 170.70
  L 122.63 170.67"
/>
<path stroke="#81aac6" vector-effect="non-scaling-stroke" d="
  M 132.73 165.87
  A 0.42 0.42 0.0 0 1 133.14 165.44
  L 140.19 165.36
  A 0.42 0.42 0.0 0 0 140.61 164.93
  L 140.59 162.29
  A 0.42 0.42 0.0 0 0 140.17 161.87
  L 129.71 161.92
  A 0.42 0.42 0.0 0 0 129.29 162.34
  L 129.29 176.12
  A 0.42 0.42 0.0 0 0 129.71 176.54
  L 140.17 176.64
  A 0.42 0.42 0.0 0 0 140.59 176.22
  L 140.60 173.54
  A 0.42 0.42 0.0 0 0 140.18 173.12
  L 133.16 173.09
  A 0.42 0.42 0.0 0 1 132.74 172.68
  L 132.72 171.41
  A 0.42 0.42 0.0 0 1 133.13 170.98
  L 138.02 170.86
  A 0.42 0.42 0.0 0 0 138.43 170.45
  L 138.47 167.96
  A 0.42 0.42 0.0 0 0 138.07 167.53
  L 133.15 167.32
  A 0.42 0.42 0.0 0 1 132.75 166.91
  L 132.73 165.87"
/>
<path stroke="#81aac6" vector-effect="non-scaling-stroke" d="
  M 146.83 172.52
  L 148.75 172.52
  Q 149.28 172.52 149.50 173.01
  L 150.74 175.71
  Q 151.35 177.05 152.72 176.53
  L 153.25 176.32
  Q 154.60 175.81 154.01 174.50
  L 152.68 171.54
  Q 152.47 171.07 152.78 170.67
  C 155.50 167.14 153.43 162.08 148.73 161.89
  Q 146.26 161.79 143.61 161.92
  A 1.08 1.08 0.0 0 0 142.58 163.00
  L 142.58 175.22
  Q 142.58 176.61 143.97 176.56
  L 145.05 176.52
  A 1.09 1.09 0.0 0 0 146.10 175.46
  L 146.16 173.17
  A 0.67 0.67 0.0 0 1 146.83 172.52"
/>
<path stroke="#81aac6" vector-effect="non-scaling-stroke" d="
  M 145.81 150.24
  Q 145.60 149.71 145.19 150.11
  Q 144.49 150.80 144.32 151.69
  Q 144.16 152.55 145.01 152.32
  Q 145.49 152.20 145.96 152.30
  Q 146.74 152.48 146.44 151.74
  L 145.81 150.24"
/>
<path stroke="#81aac6" vector-effect="non-scaling-stroke" d="
  M 63.64 167.61
  L 64.90 167.43
  Q 65.34 167.36 65.48 166.95
  Q 65.64 166.49 65.50 166.02
  Q 65.31 165.41 64.67 165.40
  L 62.05 165.39
  Q 61.39 165.39 61.39 166.05
  L 61.36 172.50
  Q 61.36 173.15 62.00 173.13
  L 64.79 173.07
  A 1.20 1.18 -76.6 0 0 65.83 172.42
  Q 66.15 171.78 65.96 171.07
  A 0.77 0.77 0.0 0 0 65.32 170.50
  L 63.77 170.27
  Q 63.25 170.19 63.11 169.69
  Q 62.93 169.02 62.97 168.32
  A 0.77 0.76 -1.8 0 1 63.64 167.61"
/>
<path stroke="#81aac6" vector-effect="non-scaling-stroke" d="
  M 74.95 165.92
  L 74.97 168.54
  A 0.50 0.50 0.0 0 0 75.48 169.04
  L 77.49 169.02
  A 1.91 1.69 -0.6 0 0 79.38 167.31
  L 79.38 167.07
  A 1.91 1.69 -0.6 0 0 77.45 165.40
  L 75.44 165.42
  A 0.50 0.50 0.0 0 0 74.95 165.92"
/>
<path stroke="#81aac6" vector-effect="non-scaling-stroke" d="
  M 95.38 169.27
  A 3.91 3.91 0.0 0 0 91.47 165.36
  A 3.91 3.91 0.0 0 0 87.56 169.27
  A 3.91 3.91 0.0 0 0 91.47 173.18
  A 3.91 3.91 0.0 0 0 95.38 169.27"
/>
<path stroke="#81aac6" vector-effect="non-scaling-stroke" d="
  M 146.11 165.76
  L 146.09 168.64
  A 0.35 0.35 0.0 0 0 146.44 169.00
  L 148.57 169.01
  A 1.90 1.54 0.4 0 0 150.48 167.49
  L 150.48 166.99
  A 1.90 1.54 0.4 0 0 148.59 165.43
  L 146.46 165.42
  A 0.35 0.35 0.0 0 0 146.11 165.76"
/>
</g>
<path fill="#ffffff" d="
  M 0.00 0.00
  L 233.00 0.00
  L 233.00 233.00
  L 0.00 233.00
  L 0.00 0.00
  Z
  M 55.57 80.03
  C 75.92 31.96 142.78 29.13 166.51 75.86
  Q 170.90 84.51 172.14 94.03
  Q 175.52 119.90 158.78 140.69
  Q 158.32 141.25 159.05 141.25
  L 171.57 141.25
  Q 172.27 141.25 172.64 140.65
  C 192.80 107.85 184.47 64.96 152.73 42.85
  C 121.26 20.93 77.62 27.70 54.65 58.68
  C 36.61 83.02 35.37 114.72 51.18 140.78
  Q 51.47 141.25 52.02 141.25
  L 64.98 141.25
  Q 65.71 141.25 65.27 140.66
  C 64.14 139.18 62.85 137.75 61.82 136.19
  Q 46.41 113.04 53.51 86.03
  Q 54.30 83.05 55.57 80.03
  Z
  M 101.01 128.54
  Q 96.03 128.97 90.70 130.09
  Q 87.84 130.69 85.74 129.88
  C 82.29 128.56 80.52 124.15 82.16 120.76
  Q 87.56 109.62 93.15 98.27
  A 5.07 5.00 54.1 0 0 93.61 95.25
  L 90.89 77.81
  Q 90.79 77.16 91.44 77.06
  L 102.47 75.40
  A 0.56 0.56 0.0 0 1 103.11 75.86
  L 104.88 86.92
  Q 105.04 87.96 106.09 88.02
  Q 106.27 88.03 106.44 87.97
  Q 107.07 87.76 106.98 87.10
  Q 106.26 81.57 105.31 75.70
  Q 105.19 74.92 105.94 74.82
  Q 106.60 74.73 107.25 74.53
  A 1.56 1.55 -12.6 0 0 108.34 72.82
  L 107.74 68.73
  A 1.65 1.64 81.5 0 0 105.87 67.34
  L 93.07 69.25
  Q 92.26 69.37 92.32 70.19
  L 92.35 70.59
  Q 92.42 71.41 93.22 71.27
  L 105.04 69.25
  Q 105.68 69.15 105.79 69.79
  L 106.15 72.03
  Q 106.23 72.55 105.71 72.63
  L 87.51 75.68
  Q 86.99 75.77 86.92 75.25
  L 86.57 72.77
  Q 86.50 72.28 86.99 72.21
  L 90.22 71.73
  A 0.69 0.69 0.0 0 0 90.81 70.98
  L 90.78 70.63
  Q 90.69 69.63 89.71 69.81
  L 85.51 70.56
  A 1.21 1.21 0.0 0 0 84.53 71.55
  C 84.21 73.54 84.38 78.97 87.99 77.70
  A 0.58 0.58 0.0 0 1 88.76 78.16
  Q 90.15 86.53 91.45 94.49
  Q 91.78 96.54 90.55 99.03
  Q 85.57 109.08 80.64 118.95
  Q 78.21 123.82 80.71 128.16
  C 82.99 132.13 86.90 132.98 91.17 132.19
  Q 98.33 130.85 105.05 129.82
  Q 106.62 129.58 108.10 130.00
  Q 119.64 133.33 132.40 137.03
  C 139.68 139.15 146.27 132.84 143.72 125.55
  Q 140.02 114.93 135.80 102.59
  C 135.39 101.38 135.63 100.12 136.13 98.98
  Q 136.99 97.03 135.31 96.91
  A 0.83 0.82 16.0 0 0 134.54 97.33
  C 133.68 98.88 133.11 101.08 133.70 102.83
  Q 137.53 114.02 141.71 126.09
  C 143.44 131.09 139.28 136.83 133.77 135.21
  Q 117.59 130.45 103.37 126.52
  C 97.75 124.97 96.36 118.09 100.80 114.55
  Q 110.93 106.46 120.47 98.69
  Q 121.32 98.00 121.62 96.96
  L 126.66 79.54
  A 0.55 0.55 0.0 0 1 127.34 79.16
  L 138.39 82.29
  A 0.31 0.31 0.0 0 1 138.60 82.67
  L 135.33 94.17
  A 0.80 0.79 -74.0 0 0 135.87 95.16
  L 136.41 95.32
  Q 137.08 95.52 137.28 94.84
  L 140.53 83.72
  Q 140.74 83.03 141.42 83.26
  Q 142.28 83.55 143.18 83.57
  Q 143.77 83.58 144.04 83.06
  Q 145.39 80.52 145.65 78.03
  A 1.61 1.60 10.9 0 0 144.49 76.32
  L 132.07 72.71
  Q 131.47 72.54 131.23 73.12
  L 131.12 73.40
  Q 130.72 74.39 131.75 74.67
  L 143.25 77.89
  A 0.48 0.48 0.0 0 1 143.58 78.50
  L 142.83 80.88
  A 0.54 0.54 0.0 0 1 142.16 81.23
  L 124.69 76.15
  Q 124.05 75.96 124.24 75.32
  L 124.81 73.40
  A 0.73 0.73 0.0 0 1 125.70 72.91
  L 128.72 73.77
  A 0.53 0.53 0.0 0 0 129.38 73.40
  L 129.59 72.65
  Q 129.75 72.05 129.15 71.89
  L 124.65 70.64
  A 0.89 0.89 0.0 0 0 123.67 71.02
  Q 122.47 72.90 121.95 75.37
  Q 121.41 77.99 124.13 78.17
  Q 124.90 78.22 124.67 78.96
  Q 122.38 86.44 120.08 94.99
  C 119.41 97.51 117.13 98.73 115.26 100.25
  Q 114.76 100.65 114.31 100.20
  Q 111.57 97.42 108.86 94.59
  C 107.78 93.47 107.77 91.75 107.53 90.30
  Q 107.45 89.80 106.95 89.71
  Q 106.46 89.61 106.04 89.87
  Q 105.63 90.12 105.62 90.61
  Q 105.57 94.19 107.33 96.06
  Q 109.79 98.67 112.53 101.35
  Q 112.97 101.78 112.63 102.28
  C 111.90 103.37 110.60 103.99 109.30 103.47
  Q 105.84 102.08 103.04 104.57
  A 3.08 3.06 36.4 0 1 99.73 105.06
  C 95.33 103.05 90.78 107.58 89.16 111.26
  Q 87.00 116.14 84.34 121.09
  C 82.35 124.78 85.15 128.66 89.18 128.23
  Q 91.27 128.01 93.12 127.51
  Q 94.19 127.22 93.85 126.16
  A 0.90 0.89 -9.8 0 0 92.94 125.53
  Q 91.23 125.65 89.56 126.02
  C 87.29 126.53 84.80 124.98 86.11 122.39
  Q 88.47 117.70 91.11 112.04
  C 92.89 108.23 96.07 105.46 100.48 107.34
  Q 100.93 107.54 101.41 107.43
  Q 103.37 107.01 105.02 105.77
  A 3.13 3.10 -64.0 0 1 106.79 105.15
  L 107.87 105.12
  Q 109.15 105.08 108.17 105.90
  L 104.09 109.31
  Q 103.71 109.63 103.28 109.38
  Q 103.05 109.24 102.93 108.99
  A 0.85 0.85 0.0 0 0 102.17 108.49
  Q 101.72 108.48 101.44 108.81
  Q 101.09 109.21 101.20 109.72
  L 101.42 110.72
  Q 101.59 111.51 100.90 111.92
  C 96.46 114.53 94.92 119.46 97.14 124.19
  Q 97.43 124.81 96.76 124.97
  L 96.13 125.11
  A 0.84 0.84 0.0 0 0 95.54 126.24
  L 95.65 126.51
  A 0.82 0.81 -20.6 0 0 96.68 126.97
  Q 98.98 126.19 101.18 128.00
  Q 101.75 128.47 101.01 128.54
  Z
  M 103.42 121.80
  A 2.32 2.32 0.0 0 1 103.25 118.12
  Q 108.51 113.68 113.51 109.87
  Q 118.24 106.27 122.20 109.91
  C 123.75 111.33 125.99 111.18 127.90 110.73
  A 1.66 1.63 -38.4 0 1 129.01 110.85
  Q 132.41 112.53 133.40 115.22
  Q 135.65 121.34 137.70 127.77
  C 138.35 129.79 136.67 131.70 134.63 131.13
  Q 125.19 128.49 111.63 124.56
  A 0.96 0.96 0.0 0 0 110.50 125.03
  Q 110.38 125.25 110.37 125.49
  Q 110.33 126.34 111.14 126.58
  Q 122.58 129.87 133.48 133.02
  C 137.60 134.21 141.22 130.85 139.63 126.65
  Q 137.54 121.11 135.61 115.04
  C 134.80 112.49 131.15 108.22 127.72 108.70
  Q 126.63 108.86 125.59 109.08
  Q 124.95 109.22 124.38 108.90
  Q 123.43 108.37 122.68 107.59
  C 120.14 104.95 114.59 106.12 112.06 108.24
  Q 107.91 111.69 103.86 114.86
  C 102.29 116.09 100.25 117.52 100.36 119.78
  C 100.56 124.00 104.18 124.90 107.62 125.52
  A 1.02 1.02 0.0 0 0 108.80 124.70
  L 108.86 124.38
  Q 109.00 123.62 108.24 123.49
  Q 105.06 122.95 103.42 121.80
  Z
  M 95.0405 113.5919
  A 1.35 1.16 80.6 0 0 95.9644 112.0705
  A 1.35 1.16 80.6 0 0 94.5995 110.9281
  A 1.35 1.16 80.6 0 0 93.6756 112.4495
  A 1.35 1.16 80.6 0 0 95.0405 113.5919
  Z
  M 115.2488 113.7312
  A 1.36 1.15 105.4 0 0 116.7187 112.7254
  A 1.36 1.15 105.4 0 0 115.9712 111.1088
  A 1.36 1.15 105.4 0 0 114.5013 112.1146
  A 1.36 1.15 105.4 0 0 115.2488 113.7312
  Z
  M 122.9945 114.6573
  A 1.34 1.15 104.5 0 0 124.4434 113.6479
  A 1.34 1.15 104.5 0 0 123.6655 112.0627
  A 1.34 1.15 104.5 0 0 122.2166 113.0721
  A 1.34 1.15 104.5 0 0 122.9945 114.6573
  Z
  M 130.2908 118.7496
  A 1.35 1.11 107.2 0 0 131.7504 117.7882
  A 1.35 1.11 107.2 0 0 131.0892 116.1704
  A 1.35 1.11 107.2 0 0 129.6296 117.1318
  A 1.35 1.11 107.2 0 0 130.2908 118.7496
  Z
  M 110.3940 119.5115
  A 1.37 1.09 106.8 0 0 111.8335 118.5150
  A 1.37 1.09 106.8 0 0 111.1860 116.8885
  A 1.37 1.09 106.8 0 0 109.7465 117.8850
  A 1.37 1.09 106.8 0 0 110.3940 119.5115
  Z
  M 119.1261 120.6296
  A 1.40 1.13 103.8 0 0 120.5574 119.5395
  A 1.40 1.13 103.8 0 0 119.7939 117.9104
  A 1.40 1.13 103.8 0 0 118.3626 119.0005
  A 1.40 1.13 103.8 0 0 119.1261 120.6296
  Z
  M 93.0545 120.9504
  A 1.41 1.17 83.3 0 0 94.0520 119.4135
  A 1.41 1.17 83.3 0 0 92.7255 118.1496
  A 1.41 1.17 83.3 0 0 91.7280 119.6865
  A 1.41 1.17 83.3 0 0 93.0545 120.9504
  Z
  M 128.3112 126.1432
  A 1.36 1.07 101.4 0 0 129.6289 125.0215
  A 1.36 1.07 101.4 0 0 128.8488 123.4768
  A 1.36 1.07 101.4 0 0 127.5311 124.5985
  A 1.36 1.07 101.4 0 0 128.3112 126.1432
  Z
  M 70.18 144.68
  Q 64.63 142.20 60.87 145.72
  C 53.93 152.25 63.60 163.04 70.81 156.92
  Q 71.57 156.28 70.98 155.47
  L 70.32 154.56
  A 1.18 1.17 -34.8 0 0 68.72 154.28
  C 65.80 156.19 61.86 154.64 62.05 150.91
  C 62.22 147.67 65.89 146.13 68.42 147.83
  Q 69.79 148.76 70.66 147.35
  L 70.89 146.99
  Q 71.86 145.43 70.18 144.68
  Z
  M 81.23 152.44
  A 0.79 0.79 0.0 0 1 82.02 153.22
  L 82.08 157.56
  A 0.79 0.79 0.0 0 0 82.84 158.33
  L 84.69 158.39
  A 0.79 0.79 0.0 0 0 85.50 157.60
  L 85.51 144.61
  A 0.79 0.79 0.0 0 0 84.70 143.82
  L 82.83 143.87
  A 0.79 0.79 0.0 0 0 82.06 144.65
  L 82.02 148.82
  A 0.79 0.79 0.0 0 1 81.23 149.61
  L 77.35 149.63
  A 0.79 0.79 0.0 0 1 76.56 148.84
  L 76.59 144.62
  A 0.79 0.79 0.0 0 0 75.77 143.82
  L 73.89 143.90
  A 0.79 0.79 0.0 0 0 73.13 144.69
  L 73.15 157.57
  A 0.79 0.79 0.0 0 0 73.92 158.36
  L 75.74 158.39
  A 0.79 0.79 0.0 0 0 76.55 157.61
  L 76.61 153.24
  A 0.79 0.79 0.0 0 1 77.40 152.46
  L 81.23 152.44
  Z
  M 91.21 147.79
  Q 91.19 147.27 91.71 147.27
  L 97.60 147.28
  Q 99.10 147.28 99.15 145.78
  L 99.18 144.98
  Q 99.22 143.75 97.98 143.75
  L 88.68 143.76
  A 1.06 1.05 90.0 0 0 87.63 144.82
  L 87.64 157.52
  A 0.97 0.96 0.3 0 0 88.60 158.48
  L 97.50 158.51
  Q 99.16 158.52 99.18 156.86
  Q 99.19 156.71 99.20 156.56
  A 1.46 1.46 0.0 0 0 97.74 154.95
  L 91.75 154.99
  Q 91.25 155.00 91.26 154.50
  L 91.26 153.25
  A 0.49 0.49 0.0 0 1 91.75 152.76
  L 95.49 152.76
  Q 97.00 152.76 96.97 151.26
  L 96.97 150.73
  Q 96.94 149.27 95.48 149.26
  L 91.75 149.23
  A 0.50 0.50 0.0 0 1 91.25 148.75
  L 91.21 147.79
  Z
  M 105.15 150.71
  L 107.55 154.06
  A 1.65 1.65 0.0 0 0 110.22 154.07
  L 112.80 150.55
  Q 113.36 149.79 113.36 150.74
  L 113.35 157.18
  Q 113.34 158.51 114.68 158.48
  L 115.59 158.46
  Q 116.86 158.43 116.86 157.16
  L 116.89 144.80
  Q 116.89 144.19 116.33 143.97
  C 115.08 143.47 113.75 143.74 112.93 144.88
  Q 110.99 147.57 109.20 149.85
  A 0.39 0.39 0.0 0 1 108.59 149.84
  Q 106.65 147.33 104.85 144.87
  Q 103.52 143.06 101.42 144.09
  Q 100.97 144.31 100.97 144.80
  L 100.95 156.98
  A 1.49 1.48 89.1 0 0 102.48 158.47
  L 103.04 158.45
  Q 104.48 158.40 104.49 156.96
  L 104.52 150.91
  Q 104.52 149.84 105.15 150.71
  Z
  M 122.64 145.05
  A 1.27 1.27 0.0 0 0 121.37 143.78
  L 120.33 143.78
  A 1.27 1.27 0.0 0 0 119.06 145.05
  L 119.06 157.19
  A 1.27 1.27 0.0 0 0 120.33 158.46
  L 121.37 158.46
  A 1.27 1.27 0.0 0 0 122.64 157.19
  L 122.64 145.05
  Z
  M 131.37 155.11
  C 124.76 153.81 128.74 143.97 134.56 148.05
  Q 135.03 148.38 135.55 148.13
  Q 136.60 147.62 136.94 146.32
  Q 137.10 145.70 136.64 145.25
  Q 135.51 144.15 133.78 143.84
  C 129.41 143.05 124.99 145.32 124.51 149.96
  C 123.79 156.81 130.43 160.71 136.21 157.40
  A 1.41 1.40 -27.8 0 0 136.78 155.58
  L 136.39 154.78
  Q 135.84 153.63 134.71 154.20
  C 133.64 154.73 132.62 155.35 131.37 155.11
  Z
  M 148.29 155.68
  L 149.45 157.95
  A 1.32 1.32 0.0 0 0 151.20 158.53
  L 151.97 158.15
  Q 153.17 157.56 152.59 156.35
  L 146.97 144.76
  A 1.79 1.79 0.0 0 0 143.74 144.76
  L 138.19 156.30
  Q 137.56 157.60 138.88 158.19
  L 139.44 158.45
  Q 140.78 159.05 141.38 157.72
  L 142.27 155.75
  Q 142.48 155.28 143.00 155.29
  L 147.65 155.29
  A 0.72 0.72 0.0 0 1 148.29 155.68
  Z
  M 158.65 155.50
  A 0.66 0.66 0.0 0 1 157.99 154.84
  L 157.98 144.52
  A 0.66 0.66 0.0 0 0 157.31 143.86
  L 155.16 143.87
  A 0.66 0.66 0.0 0 0 154.50 144.54
  L 154.53 157.79
  A 0.66 0.66 0.0 0 0 155.19 158.45
  L 164.17 158.48
  A 0.66 0.66 0.0 0 0 164.83 157.83
  L 164.87 156.18
  A 0.66 0.66 0.0 0 0 164.21 155.51
  L 158.65 155.50
  Z
  M 159.25 166.47
  Q 158.96 165.48 160.03 164.94
  A 1.40 1.39 46.9 0 1 161.35 164.99
  L 162.98 165.97
  A 0.89 0.89 0.0 0 0 164.16 165.72
  L 165.11 164.41
  Q 165.54 163.82 164.99 163.34
  C 161.56 160.35 154.98 161.24 155.65 166.91
  C 156.00 169.91 159.48 170.45 161.76 171.09
  A 1.11 1.11 0.0 0 1 162.17 173.01
  C 160.38 174.51 159.21 172.70 157.95 171.78
  A 1.16 1.14 -34.2 0 0 156.98 171.60
  Q 155.90 171.89 155.46 172.98
  Q 155.28 173.42 155.49 173.85
  C 157.44 177.95 164.45 177.77 165.89 173.35
  C 167.35 168.87 163.23 167.79 160.04 167.19
  A 1.03 1.01 -2.3 0 1 159.25 166.47
  Z
  M 68.66 168.16
  C 70.07 164.18 67.56 161.69 63.77 161.82
  Q 61.27 161.91 58.99 161.90
  A 1.13 1.13 0.0 0 0 57.85 163.03
  L 57.80 175.43
  A 1.01 1.01 0.0 0 0 58.72 176.44
  Q 61.47 176.66 64.35 176.65
  C 68.50 176.64 70.80 172.93 68.76 169.29
  Q 68.45 168.75 68.66 168.16
  Z
  M 75.46 172.53
  L 77.68 172.51
  Q 78.17 172.51 78.37 172.95
  L 79.64 175.79
  Q 80.20 177.02 81.47 176.55
  L 82.04 176.34
  Q 83.45 175.81 82.85 174.43
  L 81.63 171.67
  Q 81.42 171.18 81.69 170.71
  Q 84.56 165.79 80.61 162.92
  C 78.57 161.44 74.87 161.73 72.43 161.96
  A 1.03 1.02 -2.4 0 0 71.49 162.98
  L 71.49 175.25
  Q 71.49 176.51 72.75 176.54
  L 73.46 176.55
  Q 75.01 176.59 74.99 175.04
  L 74.96 173.04
  Q 74.95 172.54 75.46 172.53
  Z
  M 91.4174 176.8494
  A 7.58 7.31 90.7 0 0 98.8195 169.3593
  A 7.58 7.31 90.7 0 0 91.6026 161.6906
  A 7.58 7.31 90.7 0 0 84.2005 169.1807
  A 7.58 7.31 90.7 0 0 91.4174 176.8494
  Z
  M 103.47 164.74
  A 0.63 0.63 0.0 0 1 104.10 165.38
  L 104.06 175.80
  A 0.63 0.63 0.0 0 0 104.67 176.43
  L 106.83 176.52
  A 0.63 0.63 0.0 0 0 107.48 175.89
  L 107.53 165.37
  A 0.63 0.63 0.0 0 1 108.15 164.74
  L 112.10 164.71
  A 0.63 0.63 0.0 0 0 112.73 164.09
  L 112.77 162.50
  A 0.63 0.63 0.0 0 0 112.14 161.85
  L 99.45 161.86
  A 0.63 0.63 0.0 0 0 98.82 162.49
  L 98.80 164.06
  A 0.63 0.63 0.0 0 0 99.43 164.70
  L 103.47 164.74
  Z
  M 122.63 170.67
  A 0.79 0.79 0.0 0 1 123.43 171.45
  L 123.46 175.68
  A 0.79 0.79 0.0 0 0 124.25 176.46
  L 126.10 176.48
  A 0.79 0.79 0.0 0 0 126.89 175.69
  L 126.89 162.74
  A 0.79 0.79 0.0 0 0 126.09 161.95
  L 124.27 161.99
  A 0.79 0.79 0.0 0 0 123.50 162.76
  L 123.41 166.98
  A 0.79 0.79 0.0 0 1 122.63 167.75
  L 118.76 167.76
  A 0.79 0.79 0.0 0 1 117.97 166.98
  L 117.91 162.71
  A 0.79 0.79 0.0 0 0 117.09 161.93
  L 115.28 162.00
  A 0.79 0.79 0.0 0 0 114.52 162.79
  L 114.49 175.68
  A 0.79 0.79 0.0 0 0 115.27 176.47
  L 117.14 176.50
  A 0.79 0.79 0.0 0 0 117.94 175.71
  L 117.95 171.49
  A 0.79 0.79 0.0 0 1 118.73 170.70
  L 122.63 170.67
  Z
  M 132.73 165.87
  A 0.42 0.42 0.0 0 1 133.14 165.44
  L 140.19 165.36
  A 0.42 0.42 0.0 0 0 140.61 164.93
  L 140.59 162.29
  A 0.42 0.42 0.0 0 0 140.17 161.87
  L 129.71 161.92
  A 0.42 0.42 0.0 0 0 129.29 162.34
  L 129.29 176.12
  A 0.42 0.42 0.0 0 0 129.71 176.54
  L 140.17 176.64
  A 0.42 0.42 0.0 0 0 140.59 176.22
  L 140.60 173.54
  A 0.42 0.42 0.0 0 0 140.18 173.12
  L 133.16 173.09
  A 0.42 0.42 0.0 0 1 132.74 172.68
  L 132.72 171.41
  A 0.42 0.42 0.0 0 1 133.13 170.98
  L 138.02 170.86
  A 0.42 0.42 0.0 0 0 138.43 170.45
  L 138.47 167.96
  A 0.42 0.42 0.0 0 0 138.07 167.53
  L 133.15 167.32
  A 0.42 0.42 0.0 0 1 132.75 166.91
  L 132.73 165.87
  Z
  M 146.83 172.52
  L 148.75 172.52
  Q 149.28 172.52 149.50 173.01
  L 150.74 175.71
  Q 151.35 177.05 152.72 176.53
  L 153.25 176.32
  Q 154.60 175.81 154.01 174.50
  L 152.68 171.54
  Q 152.47 171.07 152.78 170.67
  C 155.50 167.14 153.43 162.08 148.73 161.89
  Q 146.26 161.79 143.61 161.92
  A 1.08 1.08 0.0 0 0 142.58 163.00
  L 142.58 175.22
  Q 142.58 176.61 143.97 176.56
  L 145.05 176.52
  A 1.09 1.09 0.0 0 0 146.10 175.46
  L 146.16 173.17
  A 0.67 0.67 0.0 0 1 146.83 172.52
  Z"
/>
<path fill="#02558c" d="
  M 55.57 80.03
  Q 54.30 83.05 53.51 86.03
  Q 46.41 113.04 61.82 136.19
  C 62.85 137.75 64.14 139.18 65.27 140.66
  Q 65.71 141.25 64.98 141.25
  L 52.02 141.25
  Q 51.47 141.25 51.18 140.78
  C 35.37 114.72 36.61 83.02 54.65 58.68
  C 77.62 27.70 121.26 20.93 152.73 42.85
  C 184.47 64.96 192.80 107.85 172.64 140.65
  Q 172.27 141.25 171.57 141.25
  L 159.05 141.25
  Q 158.32 141.25 158.78 140.69
  Q 175.52 119.90 172.14 94.03
  Q 170.90 84.51 166.51 75.86
  C 142.78 29.13 75.92 31.96 55.57 80.03
  Z"
/>
<path fill="#02558c" d="
  M 101.18 128.00
  Q 98.98 126.19 96.68 126.97
  A 0.82 0.81 -20.6 0 1 95.65 126.51
  L 95.54 126.24
  A 0.84 0.84 0.0 0 1 96.13 125.11
  L 96.76 124.97
  Q 97.43 124.81 97.14 124.19
  C 94.92 119.46 96.46 114.53 100.90 111.92
  Q 101.59 111.51 101.42 110.72
  L 101.20 109.72
  Q 101.09 109.21 101.44 108.81
  Q 101.72 108.48 102.17 108.49
  A 0.85 0.85 0.0 0 1 102.93 108.99
  Q 103.05 109.24 103.28 109.38
  Q 103.71 109.63 104.09 109.31
  L 108.17 105.90
  Q 109.15 105.08 107.87 105.12
  L 106.79 105.15
  A 3.13 3.10 -64.0 0 0 105.02 105.77
  Q 103.37 107.01 101.41 107.43
  Q 100.93 107.54 100.48 107.34
  C 96.07 105.46 92.89 108.23 91.11 112.04
  Q 88.47 117.70 86.11 122.39
  C 84.80 124.98 87.29 126.53 89.56 126.02
  Q 91.23 125.65 92.94 125.53
  A 0.90 0.89 -9.8 0 1 93.85 126.16
  Q 94.19 127.22 93.12 127.51
  Q 91.27 128.01 89.18 128.23
  C 85.15 128.66 82.35 124.78 84.34 121.09
  Q 87.00 116.14 89.16 111.26
  C 90.78 107.58 95.33 103.05 99.73 105.06
  A 3.08 3.06 36.4 0 0 103.04 104.57
  Q 105.84 102.08 109.30 103.47
  C 110.60 103.99 111.90 103.37 112.63 102.28
  Q 112.97 101.78 112.53 101.35
  Q 109.79 98.67 107.33 96.06
  Q 105.57 94.19 105.62 90.61
  Q 105.63 90.12 106.04 89.87
  Q 106.46 89.61 106.95 89.71
  Q 107.45 89.80 107.53 90.30
  C 107.77 91.75 107.78 93.47 108.86 94.59
  Q 111.57 97.42 114.31 100.20
  Q 114.76 100.65 115.26 100.25
  C 117.13 98.73 119.41 97.51 120.08 94.99
  Q 122.38 86.44 124.67 78.96
  Q 124.90 78.22 124.13 78.17
  Q 121.41 77.99 121.95 75.37
  Q 122.47 72.90 123.67 71.02
  A 0.89 0.89 0.0 0 1 124.65 70.64
  L 129.15 71.89
  Q 129.75 72.05 129.59 72.65
  L 129.38 73.40
  A 0.53 0.53 0.0 0 1 128.72 73.77
  L 125.70 72.91
  A 0.73 0.73 0.0 0 0 124.81 73.40
  L 124.24 75.32
  Q 124.05 75.96 124.69 76.15
  L 142.16 81.23
  A 0.54 0.54 0.0 0 0 142.83 80.88
  L 143.58 78.50
  A 0.48 0.48 0.0 0 0 143.25 77.89
  L 131.75 74.67
  Q 130.72 74.39 131.12 73.40
  L 131.23 73.12
  Q 131.47 72.54 132.07 72.71
  L 144.49 76.32
  A 1.61 1.60 10.9 0 1 145.65 78.03
  Q 145.39 80.52 144.04 83.06
  Q 143.77 83.58 143.18 83.57
  Q 142.28 83.55 141.42 83.26
  Q 140.74 83.03 140.53 83.72
  L 137.28 94.84
  Q 137.08 95.52 136.41 95.32
  L 135.87 95.16
  A 0.80 0.79 -74.0 0 1 135.33 94.17
  L 138.60 82.67
  A 0.31 0.31 0.0 0 0 138.39 82.29
  L 127.34 79.16
  A 0.55 0.55 0.0 0 0 126.66 79.54
  L 121.62 96.96
  Q 121.32 98.00 120.47 98.69
  Q 110.93 106.46 100.80 114.55
  C 96.36 118.09 97.75 124.97 103.37 126.52
  Q 117.59 130.45 133.77 135.21
  C 139.28 136.83 143.44 131.09 141.71 126.09
  Q 137.53 114.02 133.70 102.83
  C 133.11 101.08 133.68 98.88 134.54 97.33
  A 0.83 0.82 16.0 0 1 135.31 96.91
  Q 136.99 97.03 136.13 98.98
  C 135.63 100.12 135.39 101.38 135.80 102.59
  Q 140.02 114.93 143.72 125.55
  C 146.27 132.84 139.68 139.15 132.40 137.03
  Q 119.64 133.33 108.10 130.00
  Q 106.62 129.58 105.05 129.82
  Q 98.33 130.85 91.17 132.19
  C 86.90 132.98 82.99 132.13 80.71 128.16
  Q 78.21 123.82 80.64 118.95
  Q 85.57 109.08 90.55 99.03
  Q 91.78 96.54 91.45 94.49
  Q 90.15 86.53 88.76 78.16
  A 0.58 0.58 0.0 0 0 87.99 77.70
  C 84.38 78.97 84.21 73.54 84.53 71.55
  A 1.21 1.21 0.0 0 1 85.51 70.56
  L 89.71 69.81
  Q 90.69 69.63 90.78 70.63
  L 90.81 70.98
  A 0.69 0.69 0.0 0 1 90.22 71.73
  L 86.99 72.21
  Q 86.50 72.28 86.57 72.77
  L 86.92 75.25
  Q 86.99 75.77 87.51 75.68
  L 105.71 72.63
  Q 106.23 72.55 106.15 72.03
  L 105.79 69.79
  Q 105.68 69.15 105.04 69.25
  L 93.22 71.27
  Q 92.42 71.41 92.35 70.59
  L 92.32 70.19
  Q 92.26 69.37 93.07 69.25
  L 105.87 67.34
  A 1.65 1.64 81.5 0 1 107.74 68.73
  L 108.34 72.82
  A 1.56 1.55 -12.6 0 1 107.25 74.53
  Q 106.60 74.73 105.94 74.82
  Q 105.19 74.92 105.31 75.70
  Q 106.26 81.57 106.98 87.10
  Q 107.07 87.76 106.44 87.97
  Q 106.27 88.03 106.09 88.02
  Q 105.04 87.96 104.88 86.92
  L 103.11 75.86
  A 0.56 0.56 0.0 0 0 102.47 75.40
  L 91.44 77.06
  Q 90.79 77.16 90.89 77.81
  L 93.61 95.25
  A 5.07 5.00 54.1 0 1 93.15 98.27
  Q 87.56 109.62 82.16 120.76
  C 80.52 124.15 82.29 128.56 85.74 129.88
  Q 87.84 130.69 90.70 130.09
  Q 96.03 128.97 101.01 128.54
  Q 101.75 128.47 101.18 128.00
  Z"
/>
<path fill="#02558c" d="
  M 103.42 121.80
  Q 105.06 122.95 108.24 123.49
  Q 109.00 123.62 108.86 124.38
  L 108.80 124.70
  A 1.02 1.02 0.0 0 1 107.62 125.52
  C 104.18 124.90 100.56 124.00 100.36 119.78
  C 100.25 117.52 102.29 116.09 103.86 114.86
  Q 107.91 111.69 112.06 108.24
  C 114.59 106.12 120.14 104.95 122.68 107.59
  Q 123.43 108.37 124.38 108.90
  Q 124.95 109.22 125.59 109.08
  Q 126.63 108.86 127.72 108.70
  C 131.15 108.22 134.80 112.49 135.61 115.04
  Q 137.54 121.11 139.63 126.65
  C 141.22 130.85 137.60 134.21 133.48 133.02
  Q 122.58 129.87 111.14 126.58
  Q 110.33 126.34 110.37 125.49
  Q 110.38 125.25 110.50 125.03
  A 0.96 0.96 0.0 0 1 111.63 124.56
  Q 125.19 128.49 134.63 131.13
  C 136.67 131.70 138.35 129.79 137.70 127.77
  Q 135.65 121.34 133.40 115.22
  Q 132.41 112.53 129.01 110.85
  A 1.66 1.63 -38.4 0 0 127.90 110.73
  C 125.99 111.18 123.75 111.33 122.20 109.91
  Q 118.24 106.27 113.51 109.87
  Q 108.51 113.68 103.25 118.12
  A 2.32 2.32 0.0 0 0 103.42 121.80
  Z"
/>
<ellipse fill="#02558c" cx="0.00" cy="0.00" transform="translate(94.82,112.26) rotate(80.6)" rx="1.35" ry="1.16"/>
<ellipse fill="#02558c" cx="0.00" cy="0.00" transform="translate(115.61,112.42) rotate(105.4)" rx="1.36" ry="1.15"/>
<ellipse fill="#02558c" cx="0.00" cy="0.00" transform="translate(123.33,113.36) rotate(104.5)" rx="1.34" ry="1.15"/>
<ellipse fill="#02558c" cx="0.00" cy="0.00" transform="translate(130.69,117.46) rotate(107.2)" rx="1.35" ry="1.11"/>
<ellipse fill="#02558c" cx="0.00" cy="0.00" transform="translate(110.79,118.20) rotate(106.8)" rx="1.37" ry="1.09"/>
<ellipse fill="#02558c" cx="0.00" cy="0.00" transform="translate(119.46,119.27) rotate(103.8)" rx="1.40" ry="1.13"/>
<ellipse fill="#02558c" cx="0.00" cy="0.00" transform="translate(92.89,119.55) rotate(83.3)" rx="1.41" ry="1.17"/>
<ellipse fill="#02558c" cx="0.00" cy="0.00" transform="translate(128.58,124.81) rotate(101.4)" rx="1.36" ry="1.07"/>
<path fill="#02558c" d="
  M 70.18 144.68
  Q 71.86 145.43 70.89 146.99
  L 70.66 147.35
  Q 69.79 148.76 68.42 147.83
  C 65.89 146.13 62.22 147.67 62.05 150.91
  C 61.86 154.64 65.80 156.19 68.72 154.28
  A 1.18 1.17 -34.8 0 1 70.32 154.56
  L 70.98 155.47
  Q 71.57 156.28 70.81 156.92
  C 63.60 163.04 53.93 152.25 60.87 145.72
  Q 64.63 142.20 70.18 144.68
  Z"
/>
<path fill="#02558c" d="
  M 81.23 152.44
  L 77.40 152.46
  A 0.79 0.79 0.0 0 0 76.61 153.24
  L 76.55 157.61
  A 0.79 0.79 0.0 0 1 75.74 158.39
  L 73.92 158.36
  A 0.79 0.79 0.0 0 1 73.15 157.57
  L 73.13 144.69
  A 0.79 0.79 0.0 0 1 73.89 143.90
  L 75.77 143.82
  A 0.79 0.79 0.0 0 1 76.59 144.62
  L 76.56 148.84
  A 0.79 0.79 0.0 0 0 77.35 149.63
  L 81.23 149.61
  A 0.79 0.79 0.0 0 0 82.02 148.82
  L 82.06 144.65
  A 0.79 0.79 0.0 0 1 82.83 143.87
  L 84.70 143.82
  A 0.79 0.79 0.0 0 1 85.51 144.61
  L 85.50 157.60
  A 0.79 0.79 0.0 0 1 84.69 158.39
  L 82.84 158.33
  A 0.79 0.79 0.0 0 1 82.08 157.56
  L 82.02 153.22
  A 0.79 0.79 0.0 0 0 81.23 152.44
  Z"
/>
<path fill="#02558c" d="
  M 91.75 149.23
  L 95.48 149.26
  Q 96.94 149.27 96.97 150.73
  L 96.97 151.26
  Q 97.00 152.76 95.49 152.76
  L 91.75 152.76
  A 0.49 0.49 0.0 0 0 91.26 153.25
  L 91.26 154.50
  Q 91.25 155.00 91.75 154.99
  L 97.74 154.95
  A 1.46 1.46 0.0 0 1 99.20 156.56
  Q 99.19 156.71 99.18 156.86
  Q 99.16 158.52 97.50 158.51
  L 88.60 158.48
  A 0.97 0.96 0.3 0 1 87.64 157.52
  L 87.63 144.82
  A 1.06 1.05 90.0 0 1 88.68 143.76
  L 97.98 143.75
  Q 99.22 143.75 99.18 144.98
  L 99.15 145.78
  Q 99.10 147.28 97.60 147.28
  L 91.71 147.27
  Q 91.19 147.27 91.21 147.79
  L 91.25 148.75
  A 0.50 0.50 0.0 0 0 91.75 149.23
  Z"
/>
<path fill="#02558c" d="
  M 104.52 150.91
  L 104.49 156.96
  Q 104.48 158.40 103.04 158.45
  L 102.48 158.47
  A 1.49 1.48 89.1 0 1 100.95 156.98
  L 100.97 144.80
  Q 100.97 144.31 101.42 144.09
  Q 103.52 143.06 104.85 144.87
  Q 106.65 147.33 108.59 149.84
  A 0.39 0.39 0.0 0 0 109.20 149.85
  Q 110.99 147.57 112.93 144.88
  C 113.75 143.74 115.08 143.47 116.33 143.97
  Q 116.89 144.19 116.89 144.80
  L 116.86 157.16
  Q 116.86 158.43 115.59 158.46
  L 114.68 158.48
  Q 113.34 158.51 113.35 157.18
  L 113.36 150.74
  Q 113.36 149.79 112.80 150.55
  L 110.22 154.07
  A 1.65 1.65 0.0 0 1 107.55 154.06
  L 105.15 150.71
  Q 104.52 149.84 104.52 150.91
  Z"
/>
<rect fill="#02558c" x="119.06" y="143.78" width="3.58" height="14.68" rx="1.27"/>
<path fill="#02558c" d="
  M 134.56 148.05
  C 128.74 143.97 124.76 153.81 131.37 155.11
  C 132.62 155.35 133.64 154.73 134.71 154.20
  Q 135.84 153.63 136.39 154.78
  L 136.78 155.58
  A 1.41 1.40 -27.8 0 1 136.21 157.40
  C 130.43 160.71 123.79 156.81 124.51 149.96
  C 124.99 145.32 129.41 143.05 133.78 143.84
  Q 135.51 144.15 136.64 145.25
  Q 137.10 145.70 136.94 146.32
  Q 136.60 147.62 135.55 148.13
  Q 135.03 148.38 134.56 148.05
  Z"
/>
<path fill="#02558c" d="
  M 147.65 155.29
  L 143.00 155.29
  Q 142.48 155.28 142.27 155.75
  L 141.38 157.72
  Q 140.78 159.05 139.44 158.45
  L 138.88 158.19
  Q 137.56 157.60 138.19 156.30
  L 143.74 144.76
  A 1.79 1.79 0.0 0 1 146.97 144.76
  L 152.59 156.35
  Q 153.17 157.56 151.97 158.15
  L 151.20 158.53
  A 1.32 1.32 0.0 0 1 149.45 157.95
  L 148.29 155.68
  A 0.72 0.72 0.0 0 0 147.65 155.29
  Z
  M 145.81 150.24
  Q 145.60 149.71 145.19 150.11
  Q 144.49 150.80 144.32 151.69
  Q 144.16 152.55 145.01 152.32
  Q 145.49 152.20 145.96 152.30
  Q 146.74 152.48 146.44 151.74
  L 145.81 150.24
  Z"
/>
<path fill="#02558c" d="
  M 158.65 155.50
  L 164.21 155.51
  A 0.66 0.66 0.0 0 1 164.87 156.18
  L 164.83 157.83
  A 0.66 0.66 0.0 0 1 164.17 158.48
  L 155.19 158.45
  A 0.66 0.66 0.0 0 1 154.53 157.79
  L 154.50 144.54
  A 0.66 0.66 0.0 0 1 155.16 143.87
  L 157.31 143.86
  A 0.66 0.66 0.0 0 1 157.98 144.52
  L 157.99 154.84
  A 0.66 0.66 0.0 0 0 158.65 155.50
  Z"
/>
<path fill="#ffffff" d="
  M 145.81 150.24
  L 146.44 151.74
  Q 146.74 152.48 145.96 152.30
  Q 145.49 152.20 145.01 152.32
  Q 144.16 152.55 144.32 151.69
  Q 144.49 150.80 145.19 150.11
  Q 145.60 149.71 145.81 150.24
  Z"
/>
<path fill="#02558c" d="
  M 159.25 166.47
  A 1.03 1.01 -2.3 0 0 160.04 167.19
  C 163.23 167.79 167.35 168.87 165.89 173.35
  C 164.45 177.77 157.44 177.95 155.49 173.85
  Q 155.28 173.42 155.46 172.98
  Q 155.90 171.89 156.98 171.60
  A 1.16 1.14 -34.2 0 1 157.95 171.78
  C 159.21 172.70 160.38 174.51 162.17 173.01
  A 1.11 1.11 0.0 0 0 161.76 171.09
  C 159.48 170.45 156.00 169.91 155.65 166.91
  C 154.98 161.24 161.56 160.35 164.99 163.34
  Q 165.54 163.82 165.11 164.41
  L 164.16 165.72
  A 0.89 0.89 0.0 0 1 162.98 165.97
  L 161.35 164.99
  A 1.40 1.39 46.9 0 0 160.03 164.94
  Q 158.96 165.48 159.25 166.47
  Z"
/>
<path fill="#02558c" d="
  M 68.76 169.29
  C 70.80 172.93 68.50 176.64 64.35 176.65
  Q 61.47 176.66 58.72 176.44
  A 1.01 1.01 0.0 0 1 57.80 175.43
  L 57.85 163.03
  A 1.13 1.13 0.0 0 1 58.99 161.90
  Q 61.27 161.91 63.77 161.82
  C 67.56 161.69 70.07 164.18 68.66 168.16
  Q 68.45 168.75 68.76 169.29
  Z
  M 63.64 167.61
  L 64.90 167.43
  Q 65.34 167.36 65.48 166.95
  Q 65.64 166.49 65.50 166.02
  Q 65.31 165.41 64.67 165.40
  L 62.05 165.39
  Q 61.39 165.39 61.39 166.05
  L 61.36 172.50
  Q 61.36 173.15 62.00 173.13
  L 64.79 173.07
  A 1.20 1.18 -76.6 0 0 65.83 172.42
  Q 66.15 171.78 65.96 171.07
  A 0.77 0.77 0.0 0 0 65.32 170.50
  L 63.77 170.27
  Q 63.25 170.19 63.11 169.69
  Q 62.93 169.02 62.97 168.32
  A 0.77 0.76 -1.8 0 1 63.64 167.61
  Z"
/>
<path fill="#02558c" d="
  M 74.96 173.04
  L 74.99 175.04
  Q 75.01 176.59 73.46 176.55
  L 72.75 176.54
  Q 71.49 176.51 71.49 175.25
  L 71.49 162.98
  A 1.03 1.02 -2.4 0 1 72.43 161.96
  C 74.87 161.73 78.57 161.44 80.61 162.92
  Q 84.56 165.79 81.69 170.71
  Q 81.42 171.18 81.63 171.67
  L 82.85 174.43
  Q 83.45 175.81 82.04 176.34
  L 81.47 176.55
  Q 80.20 177.02 79.64 175.79
  L 78.37 172.95
  Q 78.17 172.51 77.68 172.51
  L 75.46 172.53
  Q 74.95 172.54 74.96 173.04
  Z
  M 74.95 165.92
  L 74.97 168.54
  A 0.50 0.50 0.0 0 0 75.48 169.04
  L 77.49 169.02
  A 1.91 1.69 -0.6 0 0 79.38 167.31
  L 79.38 167.07
  A 1.91 1.69 -0.6 0 0 77.45 165.40
  L 75.44 165.42
  A 0.50 0.50 0.0 0 0 74.95 165.92
  Z"
/>
<path fill="#02558c" d="
  M 91.4174 176.8494
  A 7.58 7.31 90.7 0 1 84.2005 169.1807
  A 7.58 7.31 90.7 0 1 91.6026 161.6906
  A 7.58 7.31 90.7 0 1 98.8195 169.3593
  A 7.58 7.31 90.7 0 1 91.4174 176.8494
  Z
  M 95.38 169.27
  A 3.91 3.91 0.0 0 0 91.47 165.36
  A 3.91 3.91 0.0 0 0 87.56 169.27
  A 3.91 3.91 0.0 0 0 91.47 173.18
  A 3.91 3.91 0.0 0 0 95.38 169.27
  Z"
/>
<path fill="#02558c" d="
  M 103.47 164.74
  L 99.43 164.70
  A 0.63 0.63 0.0 0 1 98.80 164.06
  L 98.82 162.49
  A 0.63 0.63 0.0 0 1 99.45 161.86
  L 112.14 161.85
  A 0.63 0.63 0.0 0 1 112.77 162.50
  L 112.73 164.09
  A 0.63 0.63 0.0 0 1 112.10 164.71
  L 108.15 164.74
  A 0.63 0.63 0.0 0 0 107.53 165.37
  L 107.48 175.89
  A 0.63 0.63 0.0 0 1 106.83 176.52
  L 104.67 176.43
  A 0.63 0.63 0.0 0 1 104.06 175.80
  L 104.10 165.38
  A 0.63 0.63 0.0 0 0 103.47 164.74
  Z"
/>
<path fill="#02558c" d="
  M 122.63 170.67
  L 118.73 170.70
  A 0.79 0.79 0.0 0 0 117.95 171.49
  L 117.94 175.71
  A 0.79 0.79 0.0 0 1 117.14 176.50
  L 115.27 176.47
  A 0.79 0.79 0.0 0 1 114.49 175.68
  L 114.52 162.79
  A 0.79 0.79 0.0 0 1 115.28 162.00
  L 117.09 161.93
  A 0.79 0.79 0.0 0 1 117.91 162.71
  L 117.97 166.98
  A 0.79 0.79 0.0 0 0 118.76 167.76
  L 122.63 167.75
  A 0.79 0.79 0.0 0 0 123.41 166.98
  L 123.50 162.76
  A 0.79 0.79 0.0 0 1 124.27 161.99
  L 126.09 161.95
  A 0.79 0.79 0.0 0 1 126.89 162.74
  L 126.89 175.69
  A 0.79 0.79 0.0 0 1 126.10 176.48
  L 124.25 176.46
  A 0.79 0.79 0.0 0 1 123.46 175.68
  L 123.43 171.45
  A 0.79 0.79 0.0 0 0 122.63 170.67
  Z"
/>
<path fill="#02558c" d="
  M 132.73 165.87
  L 132.75 166.91
  A 0.42 0.42 0.0 0 0 133.15 167.32
  L 138.07 167.53
  A 0.42 0.42 0.0 0 1 138.47 167.96
  L 138.43 170.45
  A 0.42 0.42 0.0 0 1 138.02 170.86
  L 133.13 170.98
  A 0.42 0.42 0.0 0 0 132.72 171.41
  L 132.74 172.68
  A 0.42 0.42 0.0 0 0 133.16 173.09
  L 140.18 173.12
  A 0.42 0.42 0.0 0 1 140.60 173.54
  L 140.59 176.22
  A 0.42 0.42 0.0 0 1 140.17 176.64
  L 129.71 176.54
  A 0.42 0.42 0.0 0 1 129.29 176.12
  L 129.29 162.34
  A 0.42 0.42 0.0 0 1 129.71 161.92
  L 140.17 161.87
  A 0.42 0.42 0.0 0 1 140.59 162.29
  L 140.61 164.93
  A 0.42 0.42 0.0 0 1 140.19 165.36
  L 133.14 165.44
  A 0.42 0.42 0.0 0 0 132.73 165.87
  Z"
/>
<path fill="#02558c" d="
  M 146.16 173.17
  L 146.10 175.46
  A 1.09 1.09 0.0 0 1 145.05 176.52
  L 143.97 176.56
  Q 142.58 176.61 142.58 175.22
  L 142.58 163.00
  A 1.08 1.08 0.0 0 1 143.61 161.92
  Q 146.26 161.79 148.73 161.89
  C 153.43 162.08 155.50 167.14 152.78 170.67
  Q 152.47 171.07 152.68 171.54
  L 154.01 174.50
  Q 154.60 175.81 153.25 176.32
  L 152.72 176.53
  Q 151.35 177.05 150.74 175.71
  L 149.50 173.01
  Q 149.28 172.52 148.75 172.52
  L 146.83 172.52
  A 0.67 0.67 0.0 0 0 146.16 173.17
  Z
  M 146.11 165.76
  L 146.09 168.64
  A 0.35 0.35 0.0 0 0 146.44 169.00
  L 148.57 169.01
  A 1.90 1.54 0.4 0 0 150.48 167.49
  L 150.48 166.99
  A 1.90 1.54 0.4 0 0 148.59 165.43
  L 146.46 165.42
  A 0.35 0.35 0.0 0 0 146.11 165.76
  Z"
/>
<path fill="#ffffff" d="
  M 62.97 168.32
  Q 62.93 169.02 63.11 169.69
  Q 63.25 170.19 63.77 170.27
  L 65.32 170.50
  A 0.77 0.77 0.0 0 1 65.96 171.07
  Q 66.15 171.78 65.83 172.42
  A 1.20 1.18 -76.6 0 1 64.79 173.07
  L 62.00 173.13
  Q 61.36 173.15 61.36 172.50
  L 61.39 166.05
  Q 61.39 165.39 62.05 165.39
  L 64.67 165.40
  Q 65.31 165.41 65.50 166.02
  Q 65.64 166.49 65.48 166.95
  Q 65.34 167.36 64.90 167.43
  L 63.64 167.61
  A 0.77 0.76 -1.8 0 0 62.97 168.32
  Z"
/>
<circle fill="#ffffff" cx="91.47" cy="169.27" r="3.91"/>
<path fill="#ffffff" d="
  M 74.95 165.92
  A 0.50 0.50 0.0 0 1 75.44 165.42
  L 77.45 165.40
  A 1.91 1.69 -0.6 0 1 79.38 167.07
  L 79.38 167.31
  A 1.91 1.69 -0.6 0 1 77.49 169.02
  L 75.48 169.04
  A 0.50 0.50 0.0 0 1 74.97 168.54
  L 74.95 165.92
  Z"
/>
<path fill="#ffffff" d="
  M 146.11 165.76
  A 0.35 0.35 0.0 0 1 146.46 165.42
  L 148.59 165.43
  A 1.90 1.54 0.4 0 1 150.48 166.99
  L 150.48 167.49
  A 1.90 1.54 0.4 0 1 148.57 169.01
  L 146.44 169.00
  A 0.35 0.35 0.0 0 1 146.09 168.64
  L 146.11 165.76
  Z"
/>
</svg>
